<?xml version="1.0" encoding="UTF-8" standalone="no"?>
<!-- Created with Inkscape (http://www.inkscape.org/) -->

<svg
   xmlns:dc="http://purl.org/dc/elements/1.1/"
   xmlns:cc="http://creativecommons.org/ns#"
   xmlns:rdf="http://www.w3.org/1999/02/22-rdf-syntax-ns#"
   xmlns:svg="http://www.w3.org/2000/svg"
   xmlns="http://www.w3.org/2000/svg"
   xmlns:sodipodi="http://sodipodi.sourceforge.net/DTD/sodipodi-0.dtd"
   xmlns:inkscape="http://www.inkscape.org/namespaces/inkscape"
   width="30.013124mm"
   height="33.149231mm"
   viewBox="0 0 30.013125 33.149232"
   version="1.1"
   id="svg8"
   inkscape:version="0.92.2 5c3e80d, 2017-08-06"
   sodipodi:docname="month.svg">
  <defs
     id="defs2">
    <marker
       inkscape:stockid="Arrow1Lstart"
       orient="auto"
       refY="0"
       refX="0"
       id="Arrow1Lstart"
       style="overflow:visible"
       inkscape:isstock="true">
      <path
         id="path827"
         d="M 0,0 5,-5 -12.5,0 5,5 Z"
         style="fill:#000000;fill-opacity:1;fill-rule:evenodd;stroke:#000000;stroke-width:1.00000003pt;stroke-opacity:1"
         transform="matrix(0.8,0,0,0.8,10,0)"
         inkscape:connector-curvature="0" />
    </marker>
  </defs>
  <sodipodi:namedview
     id="base"
     pagecolor="#ffffff"
     bordercolor="#666666"
     borderopacity="1.0"
     inkscape:pageopacity="0.0"
     inkscape:pageshadow="2"
     inkscape:zoom="5.6"
     inkscape:cx="71.224709"
     inkscape:cy="66.908979"
     inkscape:document-units="mm"
     inkscape:current-layer="layer1"
     showgrid="false"
     fit-margin-top="5"
     fit-margin-left="5"
     fit-margin-right="5"
     fit-margin-bottom="5"
     inkscape:window-width="1920"
     inkscape:window-height="1016"
     inkscape:window-x="0"
     inkscape:window-y="27"
     inkscape:window-maximized="1" />
  <metadata
     id="metadata5">
    <rdf:RDF>
      <cc:Work
         rdf:about="">
        <dc:format>image/svg+xml</dc:format>
        <dc:type
           rdf:resource="http://purl.org/dc/dcmitype/StillImage" />
        <dc:title></dc:title>
      </cc:Work>
    </rdf:RDF>
  </metadata>
  <g
     inkscape:label="Layer 1"
     inkscape:groupmode="layer"
     id="layer1"
     transform="translate(-20.910846,-11.969694)">
    <path
       style="fill:#000000;fill-opacity:1;fill-rule:evenodd;stroke:#000000;stroke-width:0.13285448;stroke-linecap:round;stroke-linejoin:miter;stroke-miterlimit:4;stroke-dasharray:none;stroke-opacity:1"
       d="m 32.118974,17.087851 0.119577,4.041693 c -15.327569,8.416642 0.977219,26.96304 11.737624,15.03454 l -7.402319,-6.207961 -0.304393,0.388946 6.842361,5.926282 C 32.246627,46.862987 18.405889,28.389093 32.795608,21.448649 l -0.08575,-4.374807 z"
       id="path825"
       inkscape:connector-curvature="0"
       sodipodi:nodetypes="ccccccccc" />
    <path
       style="fill:#000000;fill-opacity:1;fill-rule:evenodd;stroke:#000000;stroke-width:0.13285448;stroke-linecap:butt;stroke-linejoin:miter;stroke-miterlimit:4;stroke-dasharray:none;stroke-opacity:1"
       d="m 34.096943,17.065636 0.09071,4.661791 c -13.95862,4.541626 -4.035351,23.102571 7.497458,15.114493 l -2.439365,-3.108994 -2.200211,1.147937 0.66963,2.82201 -3.682962,-0.286985 0.860952,-2.82201 -2.008888,-1.769735 -2.391534,2.15238 -2.343703,-5.357035 4.113437,0.04783 0.908784,-1.626241 -2.726349,-2.439366 3.395978,-1.769734 1.43492,2.774179 2.05672,0.143492 1.506666,-4.77111 c -1.83672,-0.551791 -2.837116,-0.487992 -4.085771,-0.363681 l -0.107619,-4.543418 z"
       id="path1121"
       inkscape:connector-curvature="0"
       sodipodi:nodetypes="ccccccccccccccccccccc" />
    <path
       style="fill:#000000;fill-opacity:1;fill-rule:evenodd;stroke:#000000;stroke-width:0.13392588px;stroke-linecap:butt;stroke-linejoin:miter;stroke-opacity:1"
       d="m 35.996859,17.036658 0.09156,3.973516 c 2.812521,0.03364 5.097471,1.046356 7.180041,2.926048 l -3.280675,3.246854 0.879356,1.92782 4.971746,-0.744071 c -0.995298,-3.52827 -2.399507,-7.401016 -9.230352,-7.896677 l 0.02866,-3.433491 z"
       id="path1123"
       inkscape:connector-curvature="0"
       sodipodi:nodetypes="ccccccccc" />
    <rect
       style="fill:#8c8c8c;stroke-width:0.35277724"
       y="17.087851"
       height="1.8892492"
       id="connector0pin"
       x="32.118973"
       width="0.64007902" />
    <rect
       style="fill:#8c8c8c;stroke-width:0.35277724"
       y="17.065636"
       height="1.8892492"
       id="connector1pin"
       x="34.096943"
       width="0.64033306" />
    <rect
       style="fill:#8c8c8c;stroke-width:0.35277724"
       y="17.036657"
       height="1.8892492"
       id="connector2pin"
       x="35.996861"
       width="0.64033306" />
  </g>
</svg>
